HIERARCHY
ROOT SpineBase
{
  OFFSET 0.000000 0.000000 0.000000
  CHANNELS 6 Xposition Yposition Zposition Zrotation Xrotation Yrotation
  JOINT SpineMid
  {
    OFFSET -0.000000 33.159051 0.000000
    CHANNELS 3 Zrotation Xrotation Yrotation
    JOINT SpineShoulder
    {
      OFFSET -0.310349 24.416669 -0.748147
      CHANNELS 3 Zrotation Xrotation Yrotation
      JOINT Neck
      {
        OFFSET -0.105896 8.026857 -0.605768
        CHANNELS 3 Zrotation Xrotation Yrotation
        JOINT Head
        {
          OFFSET -4.098583 10.296582 4.808639
          CHANNELS 3 Zrotation Xrotation Yrotation
          End Site
          {
            OFFSET 0 0 0
          }
        }
      }
      JOINT ShoulderLeft
      {
        OFFSET -1.309641 -8.307711 -17.267366
        CHANNELS 3 Zrotation Xrotation Yrotation
        JOINT ElbowLeft
        {
          OFFSET -5.462668 -24.078982 2.063213
          CHANNELS 3 Zrotation Xrotation Yrotation
          JOINT WristLeft
          {
            OFFSET -3.644931 -22.871495 10.172215
            CHANNELS 3 Zrotation Xrotation Yrotation
            JOINT HandLeft
            {
              OFFSET -7.199283 -16.487061 4.057945
              CHANNELS 3 Zrotation Xrotation Yrotation
              JOINT HandTipLeft
              {
                OFFSET -0.911376 -0.750236 -1.137934
                CHANNELS 3 Zrotation Xrotation Yrotation
                End Site
                {
                  OFFSET 0 0 0
                }
              }
              JOINT ThumbLeft
              {
                OFFSET 1.228156 -0.075993 -3.633168
                CHANNELS 3 Zrotation Xrotation Yrotation
                End Site
                {
                  OFFSET 0 0 0
                }
              }
            }
          }
        }
      }
      JOINT ShoulderRight
      {
        OFFSET 1.140135 -5.350994 -12.691895
        CHANNELS 3 Zrotation Xrotation Yrotation
        JOINT ElbowRight
        {
          OFFSET -5.628562 -25.236615 -5.915319
          CHANNELS 3 Zrotation Xrotation Yrotation
          JOINT WristRight
          {
            OFFSET -7.356679 -24.811209 3.641303
            CHANNELS 3 Zrotation Xrotation Yrotation
            JOINT HandRight
            {
              OFFSET -1.225281 -10.426441 2.099468
              CHANNELS 3 Zrotation Xrotation Yrotation
              JOINT HandTipRight
              {
                OFFSET -2.400766 -5.834815 2.011349
                CHANNELS 3 Zrotation Xrotation Yrotation
                End Site
                {
                  OFFSET 0 0 0
                }
              }
              JOINT ThumbRight
              {
                OFFSET 4.124536 -0.647931 1.095362
                CHANNELS 3 Zrotation Xrotation Yrotation
                End Site
                {
                  OFFSET 0 0 0
                }
              }
            }
          }
        }
      }
    }
  }
  JOINT HipLeft
  {
    OFFSET -2.769425 -0.276990 0.717482
    CHANNELS 3 Zrotation Xrotation Yrotation
    JOINT KneeLeft
    {
      OFFSET 18.280107 -30.630784 14.010041
      CHANNELS 3 Zrotation Xrotation Yrotation
      JOINT AnkleLeft
      {
        OFFSET 5.503015 -31.404941 1.834163
        CHANNELS 3 Zrotation Xrotation Yrotation
        JOINT FootLeft
        {
          OFFSET -2.976413 -6.135366 -10.533016
          CHANNELS 3 Zrotation Xrotation Yrotation
          End Site
          {
            OFFSET 0 0 0
          }
        }
      }
    }
  }
  JOINT HipRight
  {
    OFFSET 2.245753 1.235278 -8.858004
    CHANNELS 3 Zrotation Xrotation Yrotation
    JOINT KneeRight
    {
      OFFSET 1.769937 -32.211014 5.132236
      CHANNELS 3 Zrotation Xrotation Yrotation
      JOINT AnkleRight
      {
        OFFSET 7.729728 -33.851942 2.890711
        CHANNELS 3 Zrotation Xrotation Yrotation
        JOINT FootRight
        {
          OFFSET -3.702887 -6.390884 -0.890885
          CHANNELS 3 Zrotation Xrotation Yrotation
          End Site
          {
            OFFSET 0 0 0
          }
        }
      }
    }
  }
}
MOTION
Frames: 14
Frame Time: 0.033333
3.753025 71.977593 337.417869 0.000000 0.000000 62.356619 -0.000000 0.000000 -62.356619 -0.000000 0.000000 0.000000 -0.000000 0.000000 0.000000 0.000000 0.000000 0.000000 -0.000000 0.000000 0.000000 -0.000000 0.000000 0.000000 -0.000000 0.000000 0.000000 -0.000000 0.000000 0.000000 0.000000 0.000000 0.000000 0.000000 0.000000 0.000000 -0.000000 0.000000 0.000000 -0.000000 0.000000 0.000000 -0.000000 0.000000 0.000000 -0.000000 0.000000 0.000000 0.000000 0.000000 0.000000 0.000000 0.000000 0.000000 -0.000000 0.000000 -62.356619 -0.000000 0.000000 0.000000 -0.000000 0.000000 0.000000 0.000000 0.000000 0.000000 -0.000000 0.000000 -62.356619 -0.000000 0.000000 0.000000 -0.000000 0.000000 0.000000 0.000000 0.000000 0.000000
3.689253 71.812031 336.978474 0.179502 0.468552 59.711786 -0.495126 -0.081311 -59.712871 -0.000000 0.000000 0.000000 -0.000000 0.000000 0.000000 0.000000 0.000000 0.000000 -0.000000 0.000000 0.000000 -0.000000 0.000000 0.000000 3.794247 1.905530 0.039679 10.327348 -22.226646 10.927418 0.000000 0.000000 0.000000 0.000000 0.000000 0.000000 0.831968 0.097577 -0.217792 -0.415226 1.363396 -0.161111 0.835691 -2.239737 0.750056 -1.892832 4.101917 -1.911203 0.000000 0.000000 0.000000 0.000000 0.000000 0.000000 -0.495126 -0.081311 -59.712871 -0.000000 0.000000 0.000000 0.192201 -1.520788 0.420317 0.000000 0.000000 0.000000 -1.784532 0.034806 -59.890755 0.747366 1.057145 0.170465 -0.000000 0.000000 0.000000 0.000000 0.000000 0.000000
3.755268 71.649045 336.677213 0.459720 0.795159 57.548148 -0.917665 -0.038720 -57.551648 -0.000000 0.000000 0.000000 -0.102620 -1.383190 -0.506959 0.000000 0.000000 0.000000 0.506519 1.173837 -0.228528 -0.501939 -1.175803 0.218189 8.582925 4.388781 -0.136129 18.211322 -35.208716 22.025591 0.000000 0.000000 0.000000 0.000000 0.000000 0.000000 1.608460 0.231097 -0.432974 -0.844281 2.444138 -0.272540 1.684267 -4.433459 1.510791 -3.477545 7.648023 -3.402101 0.000000 0.000000 0.000000 0.000000 0.000000 0.000000 -1.223990 -1.000880 -57.719498 -0.649878 0.772827 0.169453 0.345430 -2.837850 0.828971 0.000000 0.000000 0.000000 -3.329136 0.337478 -57.902245 1.600467 1.842836 0.331142 -0.000000 0.000000 0.000000 0.000000 0.000000 0.000000
3.951068 71.488634 336.514087 0.839723 0.981472 55.783137 -1.283760 0.142533 -55.788732 -0.000000 0.000000 0.000000 -0.013451 -1.879037 -0.747713 0.000000 0.000000 0.000000 1.056089 1.778866 -0.330627 -0.022914 -1.729817 0.777282 12.615498 6.931740 -1.049630 23.212421 -42.518257 31.074242 0.000000 0.000000 0.000000 0.000000 0.000000 0.000000 2.329790 0.400884 -0.646120 -1.293162 3.225164 -0.325378 2.429266 -6.550658 2.229274 -4.729371 10.825251 -4.567950 0.000000 0.000000 0.000000 0.000000 0.000000 0.000000 -1.622324 -0.979947 -55.995887 -0.741233 0.908405 0.210556 0.449256 -3.905967 1.212927 0.000000 0.000000 0.000000 -4.663210 0.966038 -56.294509 2.560912 2.354357 0.485848 -0.000000 0.000000 0.000000 0.000000 0.000000 0.000000
4.276655 71.330798 336.489094 1.318646 1.028978 54.352542 -1.604599 0.471973 -54.357774 0.579705 0.727831 0.049690 -0.413332 -2.975783 -1.034115 0.000000 0.000000 0.000000 1.223371 1.671137 -0.464312 -0.263353 -1.970607 1.024507 15.477699 8.471456 -1.687971 27.139594 -46.421971 37.360558 0.000000 0.000000 0.000000 0.000000 0.000000 0.000000 2.416391 -0.122023 -0.876683 -1.766250 3.693482 -0.312702 2.939057 -8.530569 2.832127 -5.583444 13.706686 -5.459717 0.000000 0.000000 0.000000 0.000000 0.000000 0.000000 -1.926998 -0.584774 -54.573582 -0.674265 0.875245 0.220640 0.494528 -4.688318 1.559724 0.000000 0.000000 0.000000 -5.807808 1.960382 -54.990574 3.629955 2.589552 0.639988 -0.000000 0.000000 0.000000 0.000000 0.000000 0.000000
4.732028 71.175538 336.602236 1.895660 0.939022 53.206673 -1.887290 0.955739 -53.206466 0.875720 0.764391 0.070361 -0.434570 -3.257346 -1.277568 0.000000 0.000000 0.000000 1.872764 2.273328 -0.576720 -0.624481 -2.048647 1.261281 14.771923 8.247730 -1.957645 31.438147 -47.555376 40.093700 0.000000 0.000000 0.000000 0.000000 0.000000 0.000000 2.732582 0.083661 -1.102036 -2.266018 3.839893 -0.229887 3.099854 -10.280898 3.239926 -5.983967 16.280957 -6.112044 0.000000 0.000000 0.000000 0.000000 0.000000 0.000000 -2.159303 0.199992 -53.400585 -0.444595 0.668939 0.199458 0.474481 -5.159239 1.858708 0.000000 0.000000 0.000000 -6.776644 3.347898 -53.930244 4.808380 2.546709 0.800570 -0.000000 0.000000 0.000000 0.000000 0.000000 0.000000
5.441474 70.911365 336.819548 2.729195 0.739541 52.048404 -1.366342 1.388660 -52.025741 0.396482 0.329088 0.068498 -0.052555 -3.573582 -1.697511 0.000000 0.000000 0.000000 3.125766 3.450649 -0.823402 -1.150344 -2.527755 1.759709 4.420877 4.324121 -2.255380 44.319805 -45.419607 39.131290 0.000000 0.000000 0.000000 0.000000 0.000000 0.000000 2.987631 0.273143 -1.326407 -2.340582 3.495797 0.040081 3.313532 -11.461685 3.555231 -6.231235 18.223236 -6.520799 0.000000 0.000000 0.000000 0.000000 0.000000 0.000000 -2.261861 1.697202 -52.032514 -0.000000 0.000000 0.000000 0.038850 -5.170258 2.650414 0.000000 0.000000 0.000000 -7.782942 5.360891 -52.808641 6.244477 2.191905 0.996833 -0.000000 0.000000 0.000000 0.000000 0.000000 0.000000
6.138329 70.812174 337.207110 3.461355 0.378789 51.931982 -1.334274 1.578061 -51.882924 0.234267 0.488093 0.080551 -0.079019 -3.547723 -1.922439 0.000000 0.000000 0.000000 4.386683 3.583161 -0.781164 -2.086663 -0.530061 1.571821 1.361844 1.658013 -2.356614 46.373283 -44.849446 36.019112 0.000000 0.000000 0.000000 0.000000 0.000000 0.000000 2.960298 0.568137 -1.525257 -2.522455 2.899687 0.324626 2.583070 -11.823880 3.328323 -5.477172 18.631456 -6.354334 0.000000 0.000000 0.000000 0.000000 0.000000 0.000000 -2.433659 2.491049 -51.890507 -0.000000 0.000000 0.000000 -0.498497 -4.623081 3.300583 0.000000 0.000000 0.000000 -7.839320 7.411513 -52.638462 7.173045 1.323882 1.132302 -0.000000 0.000000 0.000000 0.000000 0.000000 0.000000
6.546933 70.923346 337.417814 3.880167 0.214789 52.001691 -1.222557 1.577248 -51.935566 0.225336 0.451254 0.099695 -0.369161 -3.185615 -1.946450 0.000000 0.000000 0.000000 5.460697 4.443516 -0.962319 -2.868320 -0.292100 1.747538 1.970143 -0.200124 -1.682665 41.221623 -44.222888 28.151061 0.000000 0.000000 0.000000 0.000000 0.000000 0.000000 2.762553 0.871833 -1.687503 -2.472241 2.595877 0.509105 -0.343644 -13.073251 2.524933 -1.283780 22.413284 -7.180292 0.000000 0.000000 0.000000 0.000000 0.000000 0.000000 -2.779701 4.261048 -52.085607 1.189155 -0.647997 0.162497 -0.688353 -4.282996 3.444906 0.000000 0.000000 0.000000 -8.081147 8.627410 -52.690278 7.859285 0.952179 1.238031 -0.000000 0.000000 0.000000 0.000000 0.000000 0.000000
7.239824 70.964290 338.124337 4.558213 -0.484011 52.021502 -0.981116 1.689542 -51.912629 0.040627 0.574069 0.114660 -1.184357 -2.104331 -1.575895 0.000000 0.000000 0.000000 5.763676 5.049843 -1.089245 -3.325985 -0.020139 1.790328 1.211137 -2.624492 -0.896165 25.797833 -35.460423 8.892051 0.000000 0.000000 0.000000 0.000000 0.000000 0.000000 2.912395 1.499697 -2.005511 -3.958542 1.468749 0.855976 -2.602828 -12.213168 1.398361 0.215212 22.282374 -6.844688 0.000000 0.000000 0.000000 0.000000 0.000000 0.000000 -2.423530 6.516628 -51.895261 2.065373 -1.624644 0.004350 0.297913 -4.725729 1.933979 0.000000 0.000000 0.000000 -7.602410 11.199783 -52.640085 8.923716 -0.299042 1.424840 -0.000000 0.000000 0.000000 0.000000 0.000000 0.000000
8.112703 71.163096 339.118817 5.499439 -1.508136 49.804173 -0.806515 1.907126 -49.625358 -0.155544 0.771709 0.134319 -2.630845 -0.871272 -0.988902 0.000000 0.000000 0.000000 5.890114 6.207422 -1.383623 -3.790975 -0.837341 2.045617 0.938857 -3.785032 -0.415146 11.403725 -18.884662 -7.042950 0.000000 0.000000 0.000000 0.000000 0.000000 0.000000 2.814457 2.807548 -2.470198 -7.239642 0.097651 0.814946 -5.454108 -12.732891 -0.015613 -0.357217 19.444870 -5.019963 0.000000 0.000000 0.000000 0.000000 0.000000 0.000000 -2.170240 9.476737 -49.302719 2.822831 -1.984159 -0.123756 0.250648 -5.281738 2.116413 0.000000 0.000000 0.000000 -7.697931 15.022581 -50.303567 10.929489 -2.174260 1.820035 -0.000000 0.000000 0.000000 0.000000 0.000000 0.000000
9.511053 71.420420 340.811252 6.994570 -3.259876 46.057100 -0.681128 2.355465 -45.731504 -0.492535 1.274878 0.155472 -4.322982 0.864013 -0.282691 0.000000 0.000000 0.000000 5.241164 7.648133 -1.764760 -4.002622 -2.589074 2.416626 1.957923 -3.340072 -0.047010 3.263942 6.138182 -26.951963 0.000000 0.000000 0.000000 0.000000 0.000000 0.000000 2.496018 4.590246 -3.056331 -12.713369 -1.183749 0.163155 -9.478503 -13.685741 -2.189036 1.872177 18.666740 -3.819256 0.000000 0.000000 0.000000 0.000000 0.000000 0.000000 -2.292092 14.453446 -44.884034 4.668250 -4.408746 -0.521771 0.880496 -5.040907 0.894679 0.000000 0.000000 0.000000 -8.493779 21.467053 -46.165956 14.341805 -5.394251 2.641102 -0.000000 0.000000 0.000000 0.000000 0.000000 0.000000
10.497989 71.151571 341.933713 7.671002 -4.122266 48.462011 -0.388201 2.011773 -48.044044 -0.355699 1.284631 0.200047 -4.588049 3.347095 -0.180211 0.000000 0.000000 0.000000 4.868518 9.840156 -2.367927 -4.531897 -4.817187 2.912764 5.050505 -0.972338 -0.185394 14.471890 -28.679605 -4.729096 0.000000 0.000000 0.000000 0.000000 0.000000 0.000000 3.226186 6.651953 -4.113193 -23.166043 -2.169070 -1.375320 -14.240877 -14.023479 -5.370936 6.613871 16.174547 -2.240450 0.000000 0.000000 0.000000 0.000000 0.000000 0.000000 -1.311668 18.031086 -47.041906 6.542648 -7.033660 -0.757454 0.494910 -3.721857 1.032346 0.000000 0.000000 0.000000 -7.526856 25.229655 -48.599382 16.228882 -6.808318 3.145265 -0.673794 -0.406652 0.326201 0.000000 0.000000 0.000000
10.977980 70.699886 342.319366 7.886418 -4.198423 49.964885 -0.344764 1.517994 -49.514998 -0.060348 0.984782 0.243729 -4.832936 5.371614 -0.025913 0.000000 0.000000 0.000000 7.017662 9.951725 -2.397369 -7.261663 -3.899005 2.413283 5.543856 0.937319 -1.293007 29.775112 -42.675332 11.521228 0.000000 0.000000 0.000000 0.000000 0.000000 0.000000 1.980641 9.872576 -4.822749 -34.402001 -3.789523 -4.759664 -16.200012 -14.218119 -8.315479 7.890264 12.647630 -1.361803 0.000000 0.000000 0.000000 0.000000 0.000000 0.000000 -0.700439 19.299413 -48.453516 7.166888 -7.881075 -0.873920 -1.316925 -1.067541 2.795166 0.000000 0.000000 0.000000 -7.949540 26.794344 -50.076823 17.754811 -6.750147 3.472449 -0.437463 -0.581641 0.395172 0.000000 0.000000 0.000000
